<mxfile host="app.diagrams.net" modified="2023-06-14T07:44:15.953Z" agent="Mozilla/5.0 (Windows NT 10.0; Win64; x64) AppleWebKit/537.36 (KHTML, like Gecko) Chrome/114.0.0.0 Safari/537.36" etag="cKLWoCxWQE0dMUz8pqKk" version="21.3.7" type="device">
  <diagram name="ページ1" id="nfEcKw9-6iYbInknxupI">
    <mxGraphModel dx="1050" dy="549" grid="1" gridSize="10" guides="1" tooltips="1" connect="1" arrows="1" fold="1" page="1" pageScale="1" pageWidth="827" pageHeight="1169" math="0" shadow="0">
      <root>
        <mxCell id="0" />
        <mxCell id="1" parent="0" />
        <mxCell id="pw9xZOHRmdE0OJi-8WqL-1" value="" style="rounded=0;whiteSpace=wrap;html=1;strokeWidth=2;strokeColor=#000099;fillColor=none;" parent="1" vertex="1">
          <mxGeometry x="40" y="40" width="320" height="320" as="geometry" />
        </mxCell>
        <mxCell id="pw9xZOHRmdE0OJi-8WqL-2" value="ワークスペースA" style="text;html=1;align=center;verticalAlign=middle;resizable=0;points=[];autosize=1;strokeColor=none;fillColor=none;fontSize=18;" parent="1" vertex="1">
          <mxGeometry x="120" y="45" width="160" height="40" as="geometry" />
        </mxCell>
        <mxCell id="pw9xZOHRmdE0OJi-8WqL-3" value="" style="strokeWidth=2;html=1;shape=mxgraph.flowchart.database;whiteSpace=wrap;fillColor=#000099;strokeColor=#FFFFFF;" parent="1" vertex="1">
          <mxGeometry x="80" y="80" width="240" height="250" as="geometry" />
        </mxCell>
        <mxCell id="pw9xZOHRmdE0OJi-8WqL-4" value="メニューA" style="text;html=1;align=center;verticalAlign=middle;resizable=0;points=[];autosize=1;strokeColor=none;fillColor=none;fontColor=#FFFFFF;" parent="1" vertex="1">
          <mxGeometry x="160" y="166" width="80" height="30" as="geometry" />
        </mxCell>
        <mxCell id="pw9xZOHRmdE0OJi-8WqL-5" value="" style="verticalLabelPosition=bottom;verticalAlign=top;html=1;strokeWidth=2;shape=mxgraph.arrows2.arrow;dy=0.6;dx=40;notch=0;strokeColor=#FFFFFF;fillColor=#000099;" parent="1" vertex="1">
          <mxGeometry x="340" y="150" width="220" height="70" as="geometry" />
        </mxCell>
        <mxCell id="pw9xZOHRmdE0OJi-8WqL-6" value="Kym&lt;br&gt;ファイル" style="shape=note;whiteSpace=wrap;html=1;backgroundOutline=1;darkOpacity=0.05;" parent="1" vertex="1">
          <mxGeometry x="400" y="135" width="80" height="100" as="geometry" />
        </mxCell>
        <mxCell id="pw9xZOHRmdE0OJi-8WqL-7" value="データ１" style="rounded=0;whiteSpace=wrap;html=1;" parent="1" vertex="1">
          <mxGeometry x="100" y="192" width="200" height="28" as="geometry" />
        </mxCell>
        <mxCell id="pw9xZOHRmdE0OJi-8WqL-8" value="データ２" style="rounded=0;whiteSpace=wrap;html=1;" parent="1" vertex="1">
          <mxGeometry x="100" y="220" width="200" height="28" as="geometry" />
        </mxCell>
        <mxCell id="pw9xZOHRmdE0OJi-8WqL-9" value="データ３" style="rounded=0;whiteSpace=wrap;html=1;" parent="1" vertex="1">
          <mxGeometry x="100" y="248" width="200" height="28" as="geometry" />
        </mxCell>
        <mxCell id="pw9xZOHRmdE0OJi-8WqL-11" value="" style="rounded=0;whiteSpace=wrap;html=1;strokeWidth=2;strokeColor=#000099;fillColor=none;" parent="1" vertex="1">
          <mxGeometry x="540" y="40" width="320" height="320" as="geometry" />
        </mxCell>
        <mxCell id="pw9xZOHRmdE0OJi-8WqL-12" value="ワークスペースB" style="text;html=1;align=center;verticalAlign=middle;resizable=0;points=[];autosize=1;strokeColor=none;fillColor=none;fontSize=18;" parent="1" vertex="1">
          <mxGeometry x="620" y="45" width="160" height="40" as="geometry" />
        </mxCell>
        <mxCell id="pw9xZOHRmdE0OJi-8WqL-13" value="" style="strokeWidth=2;html=1;shape=mxgraph.flowchart.database;whiteSpace=wrap;fillColor=#6666FF;strokeColor=#FF0000;" parent="1" vertex="1">
          <mxGeometry x="580" y="80" width="240" height="250" as="geometry" />
        </mxCell>
        <mxCell id="pw9xZOHRmdE0OJi-8WqL-14" value="メニューA" style="text;html=1;align=center;verticalAlign=middle;resizable=0;points=[];autosize=1;strokeColor=none;fillColor=none;fontColor=#FFFFFF;" parent="1" vertex="1">
          <mxGeometry x="660" y="166" width="80" height="30" as="geometry" />
        </mxCell>
        <mxCell id="pw9xZOHRmdE0OJi-8WqL-15" value="データ１" style="rounded=0;whiteSpace=wrap;html=1;dashed=1;" parent="1" vertex="1">
          <mxGeometry x="600" y="192" width="200" height="28" as="geometry" />
        </mxCell>
        <mxCell id="pw9xZOHRmdE0OJi-8WqL-16" value="データ２" style="rounded=0;whiteSpace=wrap;html=1;dashed=1;" parent="1" vertex="1">
          <mxGeometry x="600" y="220" width="200" height="28" as="geometry" />
        </mxCell>
        <mxCell id="pw9xZOHRmdE0OJi-8WqL-17" value="データ３" style="rounded=0;whiteSpace=wrap;html=1;dashed=1;" parent="1" vertex="1">
          <mxGeometry x="600" y="248" width="200" height="28" as="geometry" />
        </mxCell>
        <mxCell id="pw9xZOHRmdE0OJi-8WqL-10" value="メニューAのデータすべてが&lt;br&gt;エクスポートされます。" style="whiteSpace=wrap;html=1;shape=mxgraph.basic.rectCallout;dx=90.4;dy=28;boundedLbl=1;" parent="1" vertex="1">
          <mxGeometry x="370" y="20" width="200" height="110" as="geometry" />
        </mxCell>
      </root>
    </mxGraphModel>
  </diagram>
</mxfile>
